<mxfile host="app.diagrams.net" modified="2020-11-24T16:00:25.565Z" agent="5.0 (Windows NT 10.0; Win64; x64) AppleWebKit/537.36 (KHTML, like Gecko) Chrome/87.0.4280.66 Safari/537.36" etag="PUY9JMwFnjIlDjuJrd7a" version="13.10.2" type="github" pages="2">
  <diagram id="M5IiM0TFyugZY1LBjts4" name="lead">
    <mxGraphModel dx="1447" dy="767" grid="1" gridSize="10" guides="1" tooltips="1" connect="1" arrows="1" fold="1" page="1" pageScale="1" pageWidth="850" pageHeight="1100" math="0" shadow="0">
      <root>
        <mxCell id="0" />
        <mxCell id="1" parent="0" />
        <mxCell id="abg9sjxfRLpBxqehRAzA-4" style="edgeStyle=orthogonalEdgeStyle;rounded=0;orthogonalLoop=1;jettySize=auto;html=1;exitX=0.5;exitY=1;exitDx=0;exitDy=0;entryX=0.5;entryY=0;entryDx=0;entryDy=0;" edge="1" parent="1" source="abg9sjxfRLpBxqehRAzA-1" target="abg9sjxfRLpBxqehRAzA-2">
          <mxGeometry relative="1" as="geometry" />
        </mxCell>
        <mxCell id="abg9sjxfRLpBxqehRAzA-1" value="Add Inquery" style="rounded=1;whiteSpace=wrap;html=1;" vertex="1" parent="1">
          <mxGeometry x="300" y="40" width="120" height="60" as="geometry" />
        </mxCell>
        <mxCell id="abg9sjxfRLpBxqehRAzA-6" style="edgeStyle=orthogonalEdgeStyle;rounded=0;orthogonalLoop=1;jettySize=auto;html=1;exitX=0.5;exitY=1;exitDx=0;exitDy=0;entryX=0.5;entryY=0;entryDx=0;entryDy=0;" edge="1" parent="1" source="abg9sjxfRLpBxqehRAzA-2" target="abg9sjxfRLpBxqehRAzA-5">
          <mxGeometry relative="1" as="geometry" />
        </mxCell>
        <mxCell id="abg9sjxfRLpBxqehRAzA-2" value="Update Inquery" style="rounded=1;whiteSpace=wrap;html=1;" vertex="1" parent="1">
          <mxGeometry x="300" y="130" width="120" height="60" as="geometry" />
        </mxCell>
        <mxCell id="abg9sjxfRLpBxqehRAzA-12" style="edgeStyle=orthogonalEdgeStyle;rounded=0;orthogonalLoop=1;jettySize=auto;html=1;exitX=1;exitY=0.5;exitDx=0;exitDy=0;" edge="1" parent="1" source="abg9sjxfRLpBxqehRAzA-5" target="abg9sjxfRLpBxqehRAzA-11">
          <mxGeometry relative="1" as="geometry" />
        </mxCell>
        <mxCell id="abg9sjxfRLpBxqehRAzA-16" style="edgeStyle=orthogonalEdgeStyle;rounded=0;orthogonalLoop=1;jettySize=auto;html=1;exitX=0.5;exitY=1;exitDx=0;exitDy=0;" edge="1" parent="1" source="abg9sjxfRLpBxqehRAzA-5" target="abg9sjxfRLpBxqehRAzA-15">
          <mxGeometry relative="1" as="geometry" />
        </mxCell>
        <mxCell id="abg9sjxfRLpBxqehRAzA-5" value="" style="rhombus;whiteSpace=wrap;html=1;" vertex="1" parent="1">
          <mxGeometry x="330" y="255" width="60" height="50" as="geometry" />
        </mxCell>
        <mxCell id="abg9sjxfRLpBxqehRAzA-7" value="[Success]" style="text;html=1;strokeColor=none;fillColor=none;align=center;verticalAlign=middle;whiteSpace=wrap;rounded=0;" vertex="1" parent="1">
          <mxGeometry x="300" y="245" width="40" height="20" as="geometry" />
        </mxCell>
        <mxCell id="abg9sjxfRLpBxqehRAzA-14" style="edgeStyle=orthogonalEdgeStyle;rounded=0;orthogonalLoop=1;jettySize=auto;html=1;" edge="1" parent="1" source="abg9sjxfRLpBxqehRAzA-11" target="abg9sjxfRLpBxqehRAzA-13">
          <mxGeometry relative="1" as="geometry" />
        </mxCell>
        <mxCell id="abg9sjxfRLpBxqehRAzA-11" value="Remove From Lead" style="rounded=1;whiteSpace=wrap;html=1;" vertex="1" parent="1">
          <mxGeometry x="530" y="250" width="120" height="60" as="geometry" />
        </mxCell>
        <mxCell id="abg9sjxfRLpBxqehRAzA-13" value="" style="verticalLabelPosition=bottom;verticalAlign=top;html=1;shape=mxgraph.flowchart.or;" vertex="1" parent="1">
          <mxGeometry x="750" y="245" width="70" height="70" as="geometry" />
        </mxCell>
        <mxCell id="abg9sjxfRLpBxqehRAzA-18" style="edgeStyle=orthogonalEdgeStyle;rounded=0;orthogonalLoop=1;jettySize=auto;html=1;exitX=0.5;exitY=1;exitDx=0;exitDy=0;entryX=0.5;entryY=0;entryDx=0;entryDy=0;" edge="1" parent="1" source="abg9sjxfRLpBxqehRAzA-15" target="abg9sjxfRLpBxqehRAzA-17">
          <mxGeometry relative="1" as="geometry" />
        </mxCell>
        <mxCell id="abg9sjxfRLpBxqehRAzA-15" value="Service Confirmation" style="rounded=1;whiteSpace=wrap;html=1;" vertex="1" parent="1">
          <mxGeometry x="300" y="350" width="120" height="60" as="geometry" />
        </mxCell>
        <mxCell id="abg9sjxfRLpBxqehRAzA-23" style="edgeStyle=orthogonalEdgeStyle;rounded=0;orthogonalLoop=1;jettySize=auto;html=1;exitX=0.5;exitY=1;exitDx=0;exitDy=0;entryX=0.5;entryY=0;entryDx=0;entryDy=0;" edge="1" parent="1" source="abg9sjxfRLpBxqehRAzA-17" target="abg9sjxfRLpBxqehRAzA-22">
          <mxGeometry relative="1" as="geometry" />
        </mxCell>
        <mxCell id="abg9sjxfRLpBxqehRAzA-17" value="Add Services" style="rounded=1;whiteSpace=wrap;html=1;" vertex="1" parent="1">
          <mxGeometry x="300" y="460" width="120" height="60" as="geometry" />
        </mxCell>
        <mxCell id="abg9sjxfRLpBxqehRAzA-19" value="[NO]" style="text;html=1;strokeColor=none;fillColor=none;align=center;verticalAlign=middle;whiteSpace=wrap;rounded=0;" vertex="1" parent="1">
          <mxGeometry x="420" y="250" width="40" height="20" as="geometry" />
        </mxCell>
        <mxCell id="abg9sjxfRLpBxqehRAzA-20" value="[YES]" style="text;html=1;strokeColor=none;fillColor=none;align=center;verticalAlign=middle;whiteSpace=wrap;rounded=0;" vertex="1" parent="1">
          <mxGeometry x="360" y="310" width="40" height="20" as="geometry" />
        </mxCell>
        <mxCell id="abg9sjxfRLpBxqehRAzA-22" value="" style="ellipse;html=1;shape=endState;fillColor=#000000;strokeColor=#ff0000;" vertex="1" parent="1">
          <mxGeometry x="330" y="600" width="60" height="60" as="geometry" />
        </mxCell>
      </root>
    </mxGraphModel>
  </diagram>
  <diagram id="U2mFLrZIGbtnBsrsHWaW" name="task">
    <mxGraphModel dx="1021" dy="541" grid="1" gridSize="10" guides="1" tooltips="1" connect="1" arrows="1" fold="1" page="1" pageScale="1" pageWidth="850" pageHeight="1100" math="0" shadow="0">
      <root>
        <mxCell id="WCFBGh3r0Rav0SGU7Tf8-0" />
        <mxCell id="WCFBGh3r0Rav0SGU7Tf8-1" parent="WCFBGh3r0Rav0SGU7Tf8-0" />
      </root>
    </mxGraphModel>
  </diagram>
</mxfile>
